<?xml version="1.0" encoding="UTF-8" standalone="no"?>
<svg
   xmlns:dc="http://purl.org/dc/elements/1.1/"
   xmlns:cc="http://creativecommons.org/ns#"
   xmlns:rdf="http://www.w3.org/1999/02/22-rdf-syntax-ns#"
   xmlns:svg="http://www.w3.org/2000/svg"
   xmlns="http://www.w3.org/2000/svg"
   id="svg8"
   version="1.1"
   viewBox="0 0 48 48"
   height="8"
   width="8">
  <defs
     id="defs2" />
  <metadata
     id="metadata5">
    <rdf:RDF>
      <cc:Work
         rdf:about="">
        <dc:format>image/svg+xml</dc:format>
        <dc:type
           rdf:resource="http://purl.org/dc/dcmitype/StillImage" />
        <dc:title></dc:title>
      </cc:Work>
    </rdf:RDF>
  </metadata>
  <g
     transform="translate(0,-351.50166)"
     id="layer1">
    <path
       id="rect4495"
       transform="matrix(6,0,0,6,0,351.50166)"
       d="M 8 0 L 7.0078125 0.001953125 L 5.0019531 0.0078125 L 5 1 L 6.2949219 0.99609375 L 4.1132812 3.1796875 L 4.8203125 3.8867188 L 7.0039062 1.7050781 L 7 3 L 7.9921875 2.9980469 L 7.9980469 0.9921875 L 8 0 z M 0 1 L 0 4 L 3 4 L 3 1 L 0 1 z M 0 5 L 0 8 L 3 8 L 3 5 L 0 5 z M 4 5 L 4 8 L 7 8 L 7 5 L 4 5 z "
       style="fill:#000000;stroke-width:1.00000012;stroke-miterlimit:4;stroke-dasharray:none" />
  </g>
</svg>
